<svg width="84" height="84" viewBox="0 0 84 84" fill="none" xmlns="http://www.w3.org/2000/svg">
<path d="M75.0927 19.11L45.3427 1.89002C44.3419 1.31422 43.2074 1.01117 42.0527 1.01117C40.898 1.01117 39.7636 1.31422 38.7627 1.89002L9.01274 19.11C8.01612 19.6875 7.18904 20.517 6.61461 21.5154C6.04017 22.5137 5.73861 23.6457 5.74024 24.7975V59.2025C5.73861 60.3543 6.04017 61.4863 6.61461 62.4846C7.18904 63.483 8.01612 64.3125 9.01274 64.89L38.7627 82.11C39.7636 82.6858 40.898 82.9888 42.0527 82.9888C43.2074 82.9888 44.3419 82.6858 45.3427 82.11L75.0927 64.89C76.0893 64.3125 76.9164 63.483 77.4908 62.4846C78.0653 61.4863 78.3668 60.3543 78.3652 59.2025V24.7975C78.3668 23.6457 78.0653 22.5137 77.4908 21.5154C76.9164 20.517 76.0893 19.6875 75.0927 19.11ZM41.4752 65.0125C26.5127 65.0125 18.8302 55.4925 18.8302 42.2625C18.8302 29.0325 27.5802 18.8475 42.1052 18.8475C58.3102 18.8475 62.8252 29.5225 63.1052 34.5975H50.0852C49.2802 30.9925 47.0577 28.49 41.8602 28.49C35.7702 28.49 32.3227 33.39 32.3227 41.9475C32.3227 51.345 35.9802 55.6325 41.8077 55.6325C43.6308 55.7331 45.4343 55.2137 46.9246 54.1587C48.4149 53.1038 49.5042 51.5754 50.0152 49.8225H63.0877C61.4252 57.085 55.7902 65.0125 41.4752 65.0125ZM71.9602 40.5125H70.2102L69.6852 42.665H71.1027V44.6075H69.2477L68.4952 47.74H66.7452L67.5152 44.6075H65.5727L64.7502 47.67H63.0002L63.7702 44.5375H62.4052V42.595H64.2602L64.7502 40.4425H63.2627V38.5H65.2227L65.9402 35.6125H67.6902L67.0427 38.5H68.9852L69.6852 35.6125H71.4352L70.7177 38.5H71.9777L71.9602 40.5125Z" fill="#7C42A9"/>
<path d="M66.0449 42.595H67.9699L68.4949 40.4425H66.5699L66.0449 42.595Z" fill="#7C42A9"/>
</svg>
