<svg width="84" height="84" viewBox="0 0 84 84" fill="none" xmlns="http://www.w3.org/2000/svg">
<path d="M5.74805 0.65625L12.3466 74.7357L41.9553 82.9913L71.6467 74.7055L78.2505 0.65625H5.74805ZM64.5421 17.6282L62.3456 42.3065L62.3522 42.4397L62.343 42.7461V42.7435L60.7824 59.9989L60.6105 61.5319L41.9993 66.6796L41.9848 66.6927L23.4058 61.5162L22.1477 47.25H31.2584L31.9048 54.5042L42.0019 57.2407L41.9993 57.246V57.2447L52.1337 54.4694L53.2047 42.6562H32.019L31.8372 40.6593L31.4232 35.9809L31.2059 33.4687H54.01L54.8395 24.2812H20.1068L19.925 22.2856L19.5116 17.6059L19.2937 15.0937H64.7593L64.5421 17.6282Z" fill="#1572B6"/>
</svg>
