<svg width="60" height="84" viewBox="0 0 60 84" fill="none" xmlns="http://www.w3.org/2000/svg">
<g clip-path="url(#clip0_1344_9)">
<path d="M59.2522 16.4663L53.8637 77.0487L29.6417 83.7877L5.48651 77.058L0.103516 16.4663H59.2522Z" fill="#E44D26"/>
<path d="M29.6777 78.6366L49.2503 73.191L53.8549 21.4205H29.6777V78.6366Z" fill="#F16529"/>
<path d="M19.2018 36.2834H29.6771V28.8521H11.1094L11.2865 30.8457L13.1066 51.3245H29.6771V43.8932H19.8786L19.2018 36.2834ZM20.8707 55.0403H13.4374L14.4748 66.7086L29.643 70.9342L29.6771 70.9249V63.1931L29.6446 63.2018L21.398 60.967L20.8707 55.0403Z" fill="#EBEBEB"/>
<path d="M5.60547 0H9.36849V3.73114H12.8108V0H16.5741V11.2988H12.8111V7.51533H9.36872V11.2988H5.6057L5.60547 0ZM21.5224 3.74696H18.2101V0H28.6004V3.74696H25.2861V11.2988H21.5231V3.74696H21.5224ZM30.2494 0H34.1731L36.5867 3.97011L38.998 0H42.9233V11.2988H39.1756V5.69851L36.5867 9.71585H36.5218L33.9313 5.69851V11.2988H30.2494V0ZM44.796 0H48.5602V7.56419H53.8521V11.2988H44.7958V0H44.796Z" fill="black"/>
<path d="M29.6526 51.3245H38.7708L37.911 60.9624L29.6523 63.1994V70.9307L44.8326 66.7086L44.9439 65.453L46.6842 45.8887L46.8648 43.8932H29.6526V51.3245ZM29.6526 36.2652V36.2834H47.5386L47.687 34.6131L48.0246 30.8457L48.2015 28.8521H29.6526V36.2652Z" fill="white"/>
</g>
<defs>
<clipPath id="clip0_1344_9">
<rect width="59.3599" height="84" fill="white"/>
</clipPath>
</defs>
</svg>
