<svg width="84" height="84" viewBox="0 0 84 84" fill="none" xmlns="http://www.w3.org/2000/svg">
<g clip-path="url(#clip0_1344_6)">
<path d="M0 0H84V84H0V0Z" fill="#F7DF1E"/>
<path d="M22.0863 70.1964L28.5142 66.3062C29.7545 68.505 30.8826 70.3654 33.5887 70.3654C36.1825 70.3654 37.8182 69.3509 37.8182 65.4042V38.5642H45.7119V65.5157C45.7119 73.6916 40.9193 77.4132 33.927 77.4132C27.6122 77.4132 23.9467 74.1428 22.0859 70.1958M49.9995 69.3505L56.4268 65.6293C58.119 68.3924 60.3181 70.4222 64.2083 70.4222C67.4794 70.4222 69.565 68.7868 69.565 66.5313C69.565 63.8249 67.4223 62.8661 63.8136 61.2878L61.8406 60.4413C56.1453 58.0174 52.3676 54.9724 52.3676 48.5445C52.3676 42.6238 56.8783 38.1127 63.9268 38.1127C68.9451 38.1127 72.5538 39.861 75.1473 44.4281L69.0009 48.3755C67.6474 45.951 66.182 44.9925 63.9265 44.9925C61.6145 44.9925 60.1484 46.4586 60.1484 48.3755C60.1484 50.7435 61.6145 51.7027 64.9975 53.1687L66.9708 54.0143C73.6809 56.8903 77.4587 59.8221 77.4587 66.4187C77.4587 73.524 71.8766 77.4142 64.3773 77.4142C57.0473 77.4142 52.3108 73.9184 49.9992 69.3509" fill="black"/>
</g>
<defs>
<clipPath id="clip0_1344_6">
<rect width="84" height="84" fill="white"/>
</clipPath>
</defs>
</svg>
