<svg width="85" height="84" viewBox="0 0 85 84" fill="none" xmlns="http://www.w3.org/2000/svg">
<g clip-path="url(#clip0_1344_3)">
<path d="M41.9854 0.0237122C20.5386 0.0237122 21.8777 9.28513 21.8777 9.28513L21.9015 18.8802H42.3678V21.761H13.7726C13.7726 21.761 0.0488281 20.2111 0.0488281 41.7596C0.0488281 63.3087 12.0273 62.5445 12.0273 62.5445H19.176V52.5448C19.176 52.5448 18.7906 40.6168 30.9633 40.6168H51.2621C51.2621 40.6168 62.6666 40.8003 62.6666 29.6411V11.1901C62.6666 11.1901 64.3987 0.0237122 41.9854 0.0237122ZM30.7003 6.47623C31.1839 6.4758 31.6629 6.57034 32.1098 6.75444C32.5567 6.93853 32.9627 7.20858 33.3047 7.54912C33.6467 7.88966 33.9179 8.29401 34.1027 8.73902C34.2876 9.18404 34.3826 9.661 34.3821 10.1426C34.3826 10.6242 34.2876 11.1011 34.1027 11.5462C33.9179 11.9912 33.6467 12.3955 33.3047 12.7361C32.9627 13.0766 32.5567 13.3466 32.1098 13.5307C31.6629 13.7148 31.1839 13.8094 30.7003 13.8089C30.2166 13.8094 29.7377 13.7148 29.2908 13.5307C28.8439 13.3466 28.4378 13.0766 28.0958 12.7361C27.7538 12.3955 27.4827 11.9912 27.2978 11.5462C27.1129 11.1011 27.018 10.6242 27.0184 10.1426C27.018 9.661 27.1129 9.18404 27.2978 8.73902C27.4827 8.29401 27.7538 7.88966 28.0958 7.54912C28.4378 7.20858 28.8439 6.93853 29.2908 6.75444C29.7377 6.57034 30.2166 6.4758 30.7003 6.47623Z" fill="url(#paint0_linear_1344_3)"/>
<path d="M42.5935 83.7122C64.0403 83.7122 62.7012 74.4507 62.7012 74.4507L62.6774 64.856H42.2108V61.9752H70.8059C70.8059 61.9752 84.5297 63.5251 84.5297 41.976C84.5297 20.4272 72.5512 21.1914 72.5512 21.1914H65.4025V31.1907C65.4025 31.1907 65.7879 43.1187 53.6153 43.1187H33.3164C33.3164 43.1187 21.9119 42.9352 21.9119 54.0947V72.5461C21.9119 72.5461 20.1801 83.7122 42.5932 83.7122H42.5935ZM53.8786 77.2603C53.395 77.2607 52.916 77.1662 52.4691 76.9821C52.0222 76.798 51.6161 76.5279 51.2742 76.1874C50.9322 75.8469 50.661 75.4425 50.4761 74.9975C50.2912 74.5525 50.1963 74.0755 50.1967 73.5939C50.1963 73.1123 50.2912 72.6353 50.476 72.1903C50.6609 71.7452 50.9321 71.3408 51.274 71.0002C51.616 70.6597 52.0221 70.3896 52.469 70.2055C52.9159 70.0214 53.3949 69.9268 53.8786 69.9272C54.3622 69.9268 54.8412 70.0213 55.2881 70.2054C55.735 70.3895 56.1411 70.6596 56.483 71.0001C56.825 71.3407 57.0962 71.745 57.2811 72.19C57.466 72.6351 57.5609 73.112 57.5605 73.5936C57.5609 74.0752 57.466 74.5521 57.2811 74.9972C57.0962 75.4422 56.825 75.8465 56.483 76.1871C56.1411 76.5276 55.735 76.7977 55.2881 76.9818C54.8412 77.1659 54.3622 77.2607 53.8786 77.2603Z" fill="url(#paint1_linear_1344_3)"/>
</g>
<defs>
<linearGradient id="paint0_linear_1344_3" x1="811.915" y1="752.751" x2="4981.08" y2="4897.78" gradientUnits="userSpaceOnUse">
<stop stop-color="#387EB8"/>
<stop offset="1" stop-color="#366994"/>
</linearGradient>
<linearGradient id="paint1_linear_1344_3" x1="1220.23" y1="1307.87" x2="5698.3" y2="5559.04" gradientUnits="userSpaceOnUse">
<stop stop-color="#FFE052"/>
<stop offset="1" stop-color="#FFC331"/>
</linearGradient>
<clipPath id="clip0_1344_3">
<rect width="84.6941" height="84" fill="white"/>
</clipPath>
</defs>
</svg>
