<svg width="664" height="811" viewBox="0 0 664 811" fill="none" xmlns="http://www.w3.org/2000/svg">
<g clip-path="url(#clip0_1337_981)">
<path d="M19.8527 614.323C25.4507 602.07 34.1282 584.712 44.3759 577.513C70.7551 559.032 133.527 527.042 243.316 579.433C366.37 638.144 369.848 530.422 490.639 522.989C577.658 517.648 672.06 540.582 692.535 584.487C711.787 625.697 695.492 726.119 619.659 719.033C483.001 706.259 491.964 735.972 360.772 787.291C226.521 839.784 197.807 703.839 71.7952 744.161C-11.4821 770.79 -5.63933 670.44 19.8527 614.323Z" fill="#2A2D7C"/>
<path d="M583.971 90.9257L451.443 435.953H459.795L583.971 90.9257Z" fill="#E9EDFB"/>
<path d="M585.134 32.3371C585.134 32.3371 577.802 78.3564 583.971 90.9257C583.971 90.9257 599.603 64.6537 585.134 32.3371ZM551.719 44.8655C551.719 44.8655 564.455 83.717 575.375 91.2422C575.375 91.2422 578.547 64.7354 551.719 44.8655Z" fill="#E9EDFB"/>
<path d="M620.566 21.2381C620.566 21.2381 583.093 70.4329 586.009 88.9652C586.009 88.9652 625.848 68.0334 620.566 21.2381ZM534.842 61.5497C534.842 61.5497 547.241 111.265 551.544 125.254C552.564 128.542 553.584 130.043 554.603 130.308C557.662 131.094 560.527 120.669 561.19 113.44C562.098 103.812 557.305 73.9352 534.842 61.5497Z" fill="#E9EDFB"/>
<path d="M555.296 129.512C555.296 129.512 555.184 129.256 555.205 129.665C555.409 134.086 556.704 160.93 555.664 165.474C554.521 170.446 558.61 159.123 558.61 159.123L555.296 129.512ZM575.384 90.7725C575.384 90.7725 574.936 90.5275 574.976 90.6806C576.108 94.9895 574.568 112.664 573.528 117.228C572.386 122.191 575.568 113.307 575.568 113.307L575.384 90.7725ZM523.574 80.9805C523.574 80.9805 526.297 145.747 533.7 160.623C543.132 179.574 548.475 145.205 547.506 138.783C546.537 132.36 544.304 95.4286 523.574 80.9805Z" fill="#E9EDFB"/>
<path d="M575.386 90.7725C575.386 90.7725 574.937 90.5275 574.978 90.6806C576.11 94.9895 574.57 112.664 573.53 117.228C572.388 122.191 575.569 113.307 575.569 113.307L575.386 90.7725ZM539.891 164.013C539.891 164.013 539.768 163.717 539.789 164.177C539.982 169.108 541.226 199.026 540.166 204.09C539.014 209.634 543.143 197.014 543.143 197.014L539.891 164.013ZM486.082 105.792C486.082 105.792 504.436 180.003 515.408 195.952C529.306 216.251 530.52 174.51 528.001 167.25C525.482 159.99 510.034 119.036 486.082 105.792Z" fill="#E9EDFB"/>
<path d="M523.015 200.71C523.015 200.71 522.678 199.455 522.699 199.965C522.913 205.469 526.839 235.416 525.646 241.073C524.351 247.25 528.959 234.263 528.959 234.263L523.015 200.71ZM464.516 139.845C464.516 139.845 488.988 216.966 499.919 233.956C513.787 255.572 512.991 208.767 509.157 195.871C505.221 182.668 488.458 153.956 464.516 139.845Z" fill="#E9EDFB"/>
<path d="M507.516 238.98C507.516 238.98 507.179 237.642 507.2 238.183C507.414 244.055 511.278 275.963 510.106 281.977C508.801 288.563 513.42 274.717 513.42 274.717L507.516 238.98ZM449.73 177.359C449.73 177.359 474.203 254.48 485.124 271.47C499.001 293.096 498.196 246.28 494.362 233.395C490.436 220.182 473.673 191.48 449.73 177.359Z" fill="#E9EDFB"/>
<path d="M492.73 276.545C492.73 276.545 492.383 275.207 492.404 275.748C492.618 281.609 496.482 314.549 495.3 320.593C493.994 327.179 499.236 312.047 499.236 312.047L492.73 276.545ZM424.564 210.043C424.564 210.043 456.98 289.992 467.88 306.972C481.748 328.599 478.658 275.503 474.824 262.607C470.899 249.405 448.507 224.154 424.564 210.043Z" fill="#E9EDFB"/>
<path d="M473.927 311.669C473.927 311.669 473.672 310.944 473.693 311.598C473.886 318.653 479.179 357.883 477.955 365.132C476.629 373.066 482.798 355.065 482.798 355.065L473.927 311.669ZM392.139 250.967C392.139 250.967 405.303 279.812 422.158 304.062C433.487 320.399 448.67 333.173 454.38 339.177C472.418 358.199 457.072 308.494 450.699 296.456C444.163 284.152 418.599 261.025 392.139 250.967Z" fill="#E9EDFB"/>
<path d="M461.476 342.526C461.476 342.526 461.221 341.801 461.241 342.454C461.435 349.52 467.054 391.905 465.483 399.113C465.116 400.818 470.684 386.248 470.684 386.248L461.476 342.526ZM376.904 290.758C376.904 290.758 391.679 323.228 410.441 350.613C423.044 368.992 439.849 383.522 446.13 390.301C466.116 411.805 448.689 355.943 441.562 342.383C434.281 328.486 406.005 302.286 376.904 290.758ZM344.631 356.474C344.631 356.474 378.576 376.486 402.549 395.335C430.682 417.452 435.668 419.963 444.039 422.69C470.551 431.297 430.784 377.559 418.772 369.737C406.474 361.722 374.701 353.104 344.631 356.474Z" fill="#E9EDFB"/>
<path d="M454.431 395.478C454.312 394.966 454.152 394.464 453.952 393.977C454.207 397.653 459.693 414.45 458.194 418.207C457.837 419.096 460.998 411.683 460.998 411.683L454.431 395.478ZM449.374 420.944C449.374 420.944 448.854 420.045 448.884 420.208C449.17 422.026 454.819 430.327 453.35 432.175C453.004 432.614 456.103 428.959 456.103 428.959L449.374 420.944ZM612.991 50.7264C612.991 50.7264 591.038 92.5083 580.535 101.637C580.535 101.637 586.796 74.5887 612.991 50.7264ZM624.34 70.9128C624.34 70.9128 595.371 100.871 585.093 104.312C585.093 104.312 598.318 80.5415 624.34 70.9128Z" fill="#E9EDFB"/>
<path d="M599.715 31.2139C599.715 31.2139 592.577 84.1867 580.515 99.3699C580.515 99.3699 570.369 70.1368 599.715 31.2139ZM624.218 90.0374C624.218 90.0374 589.304 129.481 579.036 140.345C576.619 142.898 575.182 143.909 574.468 143.847C572.327 143.653 576.65 133.861 580.362 127.439C585.317 118.882 604.844 94.4279 624.218 90.0374Z" fill="#E9EDFB"/>
<path d="M574.56 143C574.56 143 574.774 142.806 574.56 143.153C571.949 146.911 556.073 169.701 554.084 173.938C551.902 178.553 556.042 167.628 556.042 167.628L574.56 143ZM585.358 103.893C585.358 103.893 585.745 103.812 585.633 103.944C582.574 107.334 573.397 123.028 571.45 127.245C569.267 131.86 572.53 123.293 572.53 123.293L585.358 103.893ZM619.426 109.969C619.426 109.969 581.34 165.106 568.849 175.899C552.942 189.622 569.41 158.449 573.571 153.18C577.731 147.911 599.868 116.636 619.426 109.969Z" fill="#E9EDFB"/>
<path d="M585.358 103.893C585.358 103.893 585.745 103.812 585.633 103.944C582.574 107.334 573.397 123.028 571.449 127.245C569.267 131.86 572.53 123.293 572.53 123.293L585.358 103.893ZM563.547 177.063C563.547 177.063 563.771 176.838 563.547 177.236C560.651 181.433 543.072 206.908 540.788 211.585C538.3 216.69 543.153 204.631 543.153 204.631L563.547 177.063ZM626.125 141.887C626.125 141.887 574.06 200.802 559.03 211.503C539.901 225.134 562.813 188.754 568.288 183.199C573.764 177.645 605.425 146.614 626.125 141.887Z" fill="#E9EDFB"/>
<path d="M552.125 213.453C552.125 213.453 553.023 212.432 552.717 212.902C549.484 217.589 530.416 242.339 527.867 247.557C525.094 253.254 529.906 240.746 529.906 240.746L552.125 213.453ZM618.782 177.328C618.782 177.328 561.68 237.04 546.109 248.649C526.246 263.424 553.125 223.245 562.526 213.188C572.142 202.885 597.603 182.821 618.782 177.328Z" fill="#E9EDFB"/>
<path d="M539.054 250.896C539.054 250.896 539.993 249.875 539.676 250.303C536.25 255.307 516.091 281.752 513.338 287.286C510.34 293.331 515.612 280.088 515.612 280.088L539.054 250.896ZM605.752 213.862C605.752 213.862 548.65 273.573 533.069 285.183C513.206 299.958 540.084 259.779 549.486 249.721C559.112 239.419 584.573 219.345 605.752 213.862Z" fill="#E9EDFB"/>
<path d="M526.011 287.429C526.011 287.429 526.96 286.408 526.644 286.837C523.207 291.84 502.467 319.205 499.714 324.739C496.716 330.784 502.375 316.254 502.375 316.254L526.011 287.429ZM601.162 249.129C601.162 249.129 538.135 309.055 522.555 320.665C502.691 335.44 534.393 290.472 543.784 280.425C553.38 270.122 579.993 254.602 601.162 249.129Z" fill="#E9EDFB"/>
<path d="M516.55 323.024C516.55 323.024 517.09 322.462 516.713 323.024C512.634 329.068 487.55 361.436 484.083 368.052C480.341 375.261 487.142 357.995 487.142 357.995L516.55 323.024ZM595.972 293.535C595.972 293.535 572.418 314.753 549.404 330.988C533.945 341.893 518.324 348.693 511.798 352.277C491.109 363.631 527.644 325.035 537.963 316.427C548.496 307.606 575.66 294.812 595.972 293.535Z" fill="#E9EDFB"/>
<path d="M505.976 353.145C505.976 353.145 506.527 352.594 506.149 353.145C502.071 359.19 475.019 394.202 471.807 400.859C471.052 402.442 476.201 388.3 476.201 388.3L505.976 353.145ZM581.861 332.162C581.861 332.162 555.349 356.045 529.561 374.434C512.227 386.779 494.76 394.6 487.438 398.684C464.271 411.642 505.436 368.308 517.009 358.597C528.909 348.652 559.265 333.939 581.861 332.162ZM562.538 397.939C562.538 397.939 532.518 405.699 508.648 415.297C480.647 426.529 476.477 427.284 470.318 427.284C450.832 427.284 503.131 392.047 514.164 388.658C525.472 385.135 547.854 386.595 562.538 397.939Z" fill="#E9EDFB"/>
<path d="M479.963 400.829C479.963 400.829 481.278 399.389 481.064 399.675C478.851 402.738 466.34 415.736 465.045 419.402C464.739 420.259 467.176 412.979 467.176 412.979L479.963 400.829ZM468.359 424.242C468.359 424.242 469.154 423.598 469.052 423.741C467.859 425.222 460.059 430.807 459.875 432.819C459.875 433.298 460.181 429.265 460.181 429.265L468.359 424.242Z" fill="#E9EDFB"/>
<path d="M43.6836 184.169L181.034 529.197H172.388L43.6836 184.169Z" fill="#E9EDFB"/>
<path d="M42.4795 125.581C42.4795 125.581 50.0761 171.6 43.6827 184.169C43.6827 184.169 27.48 157.897 42.4795 125.581ZM77.1079 138.109C77.1079 138.109 63.903 176.96 52.6355 184.486C52.5846 184.486 49.3012 157.979 77.1079 138.109Z" fill="#E9EDFB"/>
<path d="M5.76192 114.482C5.76192 114.482 44.5913 163.676 41.5731 182.209C41.5731 182.209 0.286239 161.277 5.76192 114.482ZM94.5964 154.793C94.5964 154.793 81.7383 204.509 77.2619 218.497C76.2422 221.785 75.1206 223.286 74.0499 223.552C70.8583 224.338 67.9318 213.913 67.2282 206.684C66.3513 197.055 71.3171 167.168 94.5964 154.793Z" fill="#E9EDFB"/>
<path d="M73.3961 222.755C73.3961 222.755 73.5184 222.5 73.498 222.908C73.2839 227.33 71.9379 254.163 73.0188 258.717C74.2118 263.69 69.9598 252.366 69.9598 252.366L73.3961 222.755ZM52.5742 184.016C52.5742 184.016 53.0535 183.761 53.0025 183.924C51.8298 188.233 53.4205 205.908 54.5014 210.472C55.6842 215.444 52.3906 206.561 52.3906 206.561L52.5742 184.016ZM106.281 174.224C106.281 174.224 103.466 238.98 95.7882 253.887C86.0095 272.838 80.493 238.469 81.5127 232.037C82.5324 225.604 84.7859 188.672 106.281 174.224Z" fill="#E9EDFB"/>
<path d="M52.5742 184.016C52.5742 184.016 53.0535 183.761 53.0025 183.924C51.8298 188.233 53.4205 205.908 54.5014 210.472C55.6842 215.444 52.3906 206.561 52.3906 206.561L52.5742 184.016ZM89.3235 257.257C89.3235 257.257 89.4458 256.961 89.4356 257.42C89.2317 262.352 87.9367 292.259 89.0379 297.334C90.2309 302.878 85.9789 290.258 85.9789 290.258L89.3235 257.257ZM145.131 199.036C145.131 199.036 126.052 273.247 114.734 289.196C100.336 309.495 99.0818 267.753 101.692 260.494C104.303 253.234 120.301 212.279 145.131 199.036Z" fill="#E9EDFB"/>
<path d="M106.852 293.954C106.852 293.954 107.209 292.698 107.188 293.209C106.954 298.712 102.895 328.66 104.129 334.317C105.475 340.494 100.703 327.506 100.703 327.506L106.852 293.954ZM167.472 233.088C167.472 233.088 142.092 310.209 130.763 327.2C116.386 348.816 117.212 302.01 121.189 289.114C125.288 275.912 142.663 247.199 167.472 233.088Z" fill="#E9EDFB"/>
<path d="M122.913 332.264C122.913 332.264 123.269 330.927 123.249 331.468C123.025 337.339 118.997 369.247 120.241 375.261C121.587 381.847 116.805 368.001 116.805 368.001L122.913 332.264ZM182.809 270.633C182.809 270.633 157.419 347.754 146.1 364.744C131.723 386.37 132.559 339.555 136.525 326.669C140.614 313.426 158 284.723 182.809 270.633Z" fill="#E9EDFB"/>
<path d="M138.248 369.788C138.248 369.788 138.595 368.451 138.575 368.992C138.35 374.853 134.343 407.792 135.577 413.837C136.933 420.423 131.498 405.291 131.498 405.291L138.248 369.788ZM208.882 303.307C208.882 303.307 175.293 383.246 164.016 400.236C149.638 421.863 152.799 368.767 156.817 355.871C160.865 342.648 184.073 317.398 208.882 303.307Z" fill="#E9EDFB"/>
<path d="M157.724 404.913C157.724 404.913 157.99 404.188 157.969 404.841C157.775 411.897 152.29 451.116 153.544 458.376C154.92 466.309 148.537 448.308 148.537 448.308L157.724 404.913ZM242.49 344.211C242.49 344.211 228.847 373.056 211.37 397.306C199.643 413.643 183.838 426.416 177.985 432.42C159.285 451.443 175.192 401.737 181.799 389.699C188.57 377.395 215.061 354.268 242.49 344.211Z" fill="#E9EDFB"/>
<path d="M170.633 435.769C170.633 435.769 170.887 435.044 170.867 435.698C170.673 442.764 164.851 485.148 166.472 492.357C166.86 494.062 161.078 479.491 161.078 479.491L170.633 435.769ZM258.274 383.971C258.274 383.971 242.979 416.441 223.513 443.826C210.461 462.205 193.045 476.734 186.509 483.514C165.789 505.018 183.848 449.156 191.24 435.596C198.806 421.75 228.112 395.55 258.274 383.971ZM291.719 449.717C291.719 449.717 256.551 469.73 231.691 488.579C202.538 510.695 197.379 513.207 188.701 515.933C161.17 524.541 202.457 470.802 214.887 462.981C227.633 454.965 260.548 446.348 291.719 449.717Z" fill="#E9EDFB"/>
<path d="M177.904 488.712C177.904 488.712 178.424 486.884 178.403 487.221C178.138 490.897 172.448 507.642 174.008 511.451C174.376 512.339 171.092 504.926 171.092 504.926L177.904 488.712ZM183.175 514.187C183.175 514.187 183.706 513.289 183.685 513.452C183.379 515.269 177.567 523.571 179.056 525.419C179.413 525.858 176.201 522.202 176.201 522.202L183.175 514.187ZM13.6128 144.021C13.6128 144.021 36.3618 185.803 47.2622 194.931C47.2418 194.88 40.7975 167.812 13.6128 144.021ZM1.8457 164.156C1.8457 164.156 31.865 194.114 42.5207 197.555C42.5207 197.555 28.8162 173.785 1.8457 164.156Z" fill="#E9EDFB"/>
<path d="M27.3689 124.457C27.3689 124.457 34.7514 177.43 47.2629 192.613C47.2629 192.613 57.7758 163.421 27.3689 124.457ZM1.96875 183.281C1.96875 183.281 38.1572 222.725 48.8026 233.589C51.3009 236.141 52.7896 237.152 53.534 237.091C55.7569 236.897 51.2703 227.105 47.4159 220.682C42.2869 212.126 22.0564 187.671 1.96875 183.281Z" fill="#E9EDFB"/>
<path d="M53.441 236.213C53.441 236.213 53.2269 236.019 53.441 236.376C56.1533 240.134 72.6008 262.924 74.6707 267.161C76.9242 271.776 72.6314 260.841 72.6314 260.841L53.441 236.213ZM42.2857 197.116C42.2857 197.116 41.8778 197.035 42.0001 197.167C45.1713 200.557 54.634 216.251 56.704 220.468C58.9575 225.083 55.5823 216.516 55.5823 216.516L42.2857 197.116ZM6.89258 203.243C6.89258 203.243 46.3644 258.38 59.3144 269.142C75.8026 282.865 58.7331 251.692 54.4199 246.423C50.1067 241.155 27.2148 209.88 6.89258 203.243Z" fill="#E9EDFB"/>
<path d="M42.2861 197.116C42.2861 197.116 41.8782 197.035 42.0006 197.167C45.1718 200.557 54.6344 216.251 56.7044 220.468C58.9579 225.083 55.5827 216.516 55.5827 216.516L42.2861 197.116ZM64.8516 270.306C64.8516 270.306 64.6171 270.081 64.8516 270.469C67.8495 274.676 86.0712 300.152 88.4368 304.828C91.0166 309.934 85.9896 297.875 85.9896 297.875L64.8516 270.306ZM0 235.13C0 235.13 53.9614 294.036 69.5319 304.747C89.3545 318.378 65.6062 281.997 59.9265 276.443C54.2469 270.888 21.4439 239.858 0 235.13Z" fill="#E9EDFB"/>
<path d="M76.6699 306.727C76.6699 306.727 75.742 305.706 76.0479 306.176C79.3924 310.863 99.164 335.613 101.795 340.831C104.68 346.528 99.7045 334.02 99.7045 334.02L76.6699 306.727ZM7.61719 270.572C7.61719 270.572 66.7586 330.283 82.9307 341.893C103.518 356.668 75.6604 316.489 65.9225 306.431C55.9398 296.159 29.5505 276.055 7.61719 270.572Z" fill="#E9EDFB"/>
<path d="M90.2107 344.149C90.2107 344.149 89.242 343.128 89.5683 343.557C93.1168 348.56 114.041 375.006 116.855 380.54C119.965 386.585 114.51 373.342 114.51 373.342L90.2107 344.149ZM21.1172 307.105C21.1172 307.105 80.2586 366.817 96.4307 378.426C117.018 393.201 89.1604 353.022 79.4225 342.965C69.45 332.662 43.0607 312.588 21.1172 307.105Z" fill="#E9EDFB"/>
<path d="M103.743 380.673C103.743 380.673 102.723 379.652 103.1 380.081C106.649 385.084 128.154 412.438 130.999 417.982C134.058 424.027 128.245 409.497 128.245 409.497L103.743 380.673ZM25.8594 342.373C25.8594 342.373 91.231 402.35 107.362 413.908C127.94 428.683 95.1262 383.716 85.3577 373.658C75.3852 363.366 47.8029 347.846 25.8594 342.373Z" fill="#E9EDFB"/>
<path d="M113.561 416.267C113.561 416.267 112.99 415.706 113.388 416.267C117.63 422.312 143.611 454.679 147.16 461.286C151.045 468.505 144.029 451.239 144.029 451.239L113.561 416.267ZM31.2832 386.779C31.2832 386.779 55.6943 407.996 79.5446 424.231C95.5536 435.136 111.746 441.926 118.517 445.521C139.93 456.875 102.09 418.279 91.3933 409.671C80.4419 400.849 52.2988 388.055 31.2832 386.779Z" fill="#E9EDFB"/>
<path d="M124.513 446.389C124.513 446.389 123.942 445.837 124.339 446.389C128.581 452.433 156.602 487.445 159.926 494.103C160.711 495.685 155.368 481.544 155.368 481.544L124.513 446.389ZM45.875 425.406C45.875 425.406 73.3247 449.319 100.071 467.698C118.038 480.043 136.147 487.864 143.723 491.948C167.706 504.885 125.074 461.572 113.052 451.841C100.744 441.896 69.2665 427.213 45.875 425.406ZM65.8913 491.183C65.8913 491.183 97.0017 498.943 121.749 508.541C150.769 519.772 155.093 520.528 161.517 520.528C181.707 520.528 127.521 485.291 116.08 481.901C104.313 478.378 81.1151 479.839 65.8913 491.183Z" fill="#E9EDFB"/>
<path d="M151.474 494.072C151.128 493.668 150.76 493.283 150.373 492.918C152.678 495.982 165.668 508.98 166.984 512.635C167.3 513.503 164.771 506.223 164.771 506.223L151.474 494.072ZM163.496 517.475C163.496 517.475 162.67 516.842 162.783 516.975C164.016 518.465 172.092 524.051 172.347 526.062C172.398 526.542 172.031 522.509 172.031 522.509L163.496 517.475Z" fill="#E9EDFB"/>
<path d="M610.318 258.094L483.021 519.588L489.568 520.16L610.318 258.094Z" fill="#2A2D7C"/>
<path d="M615.203 212.238C615.203 212.238 606.331 247.822 610.318 258.094C610.318 258.094 624.359 238.561 615.203 212.238ZM588.15 219.794C588.15 219.794 595.502 251.12 603.558 257.757C603.558 257.757 607.84 237.193 588.15 219.794Z" fill="#2A2D7C"/>
<path d="M643.735 205.948C643.735 205.948 611.023 241.972 612.053 256.695C612.053 256.695 644.703 242.993 643.735 205.948ZM573.795 231.72C573.795 231.72 580.148 271.542 582.564 282.773C583.135 285.418 583.859 286.674 584.655 286.949C587.02 287.777 589.947 279.802 590.956 274.176C592.292 266.712 590.569 242.962 573.795 231.72Z" fill="#2A2D7C"/>
<path d="M585.225 286.398C585.225 286.398 585.154 286.184 585.133 286.51C585.001 289.992 584.195 311.128 583.094 314.62C581.86 318.439 585.847 309.842 585.847 309.842L585.225 286.398ZM603.6 257.359C603.6 257.359 603.263 257.134 603.284 257.267C603.875 260.718 601.479 274.472 600.347 277.964C599.113 281.783 602.213 275.034 602.213 275.034L603.6 257.359ZM563.638 246.189C563.638 246.189 561.375 297.16 566.177 309.341C572.296 324.841 578.801 298.253 578.475 293.147C578.148 288.042 578.913 258.931 563.638 246.189Z" fill="#2A2D7C"/>
<path d="M603.599 257.359C603.599 257.359 603.263 257.134 603.283 257.267C603.875 260.718 601.478 274.472 600.347 277.964C599.113 281.783 602.213 275.034 602.213 275.034L603.599 257.359ZM570.837 312.405C570.837 312.405 570.755 312.17 570.745 312.527C570.562 316.407 569.511 339.943 568.339 343.843C567.054 348.111 571.143 338.493 571.143 338.493L570.837 312.405ZM532.568 263.097C532.568 263.097 541.96 322.533 549.444 335.777C558.968 352.634 562.7 319.981 561.262 314.13C559.824 308.279 550.443 275.115 532.568 263.097Z" fill="#2A2D7C"/>
<path d="M555.084 340.065C555.084 340.065 554.9 339.044 554.88 339.463C554.686 343.792 555.726 367.532 554.411 371.892C552.983 376.65 557.47 366.786 557.47 366.786L555.084 340.065ZM513.379 288.328C513.379 288.328 527.359 350.46 534.792 364.52C544.204 382.409 546.743 345.661 544.612 335.287C542.358 324.668 531.162 301.02 513.379 288.328Z" fill="#2A2D7C"/>
<path d="M540.338 369.012C540.338 369.012 540.155 367.94 540.135 368.359C539.91 372.974 540.787 398.245 539.451 402.891C537.983 407.997 542.51 397.428 542.51 397.428L540.338 369.012ZM499.215 316.734C499.215 316.734 513.184 378.866 520.628 392.926C530.04 410.825 532.589 374.067 530.458 363.703C528.225 353.073 517.018 329.436 499.215 316.734Z" fill="#2A2D7C"/>
<path d="M526.196 397.418C526.196 397.418 526.022 396.397 526.002 396.775C525.768 401.39 526.563 427.489 525.227 432.134C523.759 437.24 528.888 425.702 528.888 425.702L526.196 397.418ZM477.271 340.647C477.271 340.647 497.257 405.526 504.65 419.596C514.062 437.485 515.234 395.652 513.103 385.278C510.921 374.659 495.075 353.339 477.271 340.647Z" fill="#2A2D7C"/>
<path d="M509.075 423.68C509.075 423.68 508.922 423.098 508.891 423.609C508.565 429.153 510.053 460.265 508.605 465.87C507.035 471.997 513.082 458.304 513.082 458.304L509.075 423.68ZM449.066 370.523C449.066 370.523 457.428 394.008 469.001 414.225C476.771 427.774 487.824 438.853 491.883 443.948C504.741 460.081 496.074 420.076 491.883 410.253C487.6 400.083 469.134 380.213 449.066 370.523Z" fill="#2A2D7C"/>
<path d="M497.216 447.032C497.216 447.032 497.073 446.45 497.043 446.96C496.716 452.505 498.246 486.118 496.533 491.662C496.125 492.98 501.478 481.932 501.478 481.932L497.216 447.032ZM434.424 400.696C434.424 400.696 443.805 427.152 456.663 449.901C465.29 465.217 477.485 477.694 481.972 483.443C496.186 501.659 486.316 456.681 481.635 445.561C476.853 434.166 456.459 411.723 434.424 400.696ZM404.67 450.023C404.67 450.023 429.917 468.015 447.445 484.423C468.002 503.67 471.734 505.988 478.117 508.684C498.317 517.24 470.776 472.405 461.894 465.452C452.799 458.335 428.479 449.421 404.67 450.023Z" fill="#2A2D7C"/>
<path d="M488.11 488.058C488.048 487.65 487.956 487.248 487.835 486.853C487.835 489.753 490.894 503.292 489.518 506.131C489.171 506.805 492.159 501.22 492.159 501.22L488.11 488.058ZM482.421 507.683C482.421 507.683 482.074 506.938 482.084 507.07C482.186 508.52 486.051 515.412 484.766 516.76C484.47 517.087 487.142 514.422 487.142 514.422L482.421 507.683ZM635.791 228.555C635.791 228.555 615.744 259.82 606.903 266.252C606.903 266.252 613.602 245.464 635.791 228.555ZM643.326 245.106C643.326 245.106 618.579 266.63 610.299 268.591C610.299 268.662 622.27 250.926 643.326 245.106Z" fill="#2A2D7C"/>
<path d="M626.706 212.351C626.706 212.351 617.528 253.397 607.036 264.476C607.036 264.506 601.071 240.869 626.706 212.351ZM641.939 260.136C641.939 260.136 611.879 288.726 603.1 296.507C601.061 298.345 599.837 299.039 599.276 298.937C597.614 298.651 601.662 291.258 605.017 286.48C609.483 280.108 626.44 262.26 641.939 260.136Z" fill="#2A2D7C"/>
<path d="M599.398 298.263C599.398 298.263 599.581 298.13 599.398 298.385C597.093 301.152 583.083 317.949 581.257 321.124C579.218 324.596 583.215 316.315 583.215 316.315L599.398 298.263ZM610.522 268.356C610.522 268.356 610.838 268.356 610.736 268.417C608.116 270.868 599.887 282.549 598.031 285.724C595.992 289.186 599.153 282.661 599.153 282.661L610.522 268.356ZM636.861 275.442C636.861 275.442 603.262 316.091 592.729 323.687C579.33 333.367 594.35 310.046 597.97 306.196C601.59 302.347 621.035 279.332 636.861 275.442Z" fill="#2A2D7C"/>
<path d="M610.523 268.356C610.523 268.356 610.839 268.356 610.737 268.417C608.116 270.868 599.888 282.549 598.032 285.724C595.992 289.186 599.153 282.661 599.153 282.661L610.523 268.356ZM588.467 324.239C588.467 324.239 588.661 324.085 588.467 324.371C585.908 327.435 570.398 346.243 568.288 349.755C565.993 353.584 570.613 344.466 570.613 344.466L588.467 324.239ZM639.91 300.918C639.91 300.918 595.095 343.567 582.584 350.95C566.666 360.333 587.101 333.367 591.761 329.385C596.421 325.403 623.371 303.215 639.91 300.918Z" fill="#2A2D7C"/>
<path d="M577.058 352.022C577.058 352.022 577.823 351.307 577.558 351.624C574.713 355.085 558.082 373.188 555.726 377.15C553.167 381.428 557.766 371.943 557.766 371.943L577.058 352.022ZM631.754 328.211C631.754 328.211 582.962 371.095 569.941 379.182C553.361 389.393 577.16 359.782 585.236 352.491C593.454 345.068 614.776 331.059 631.754 328.211Z" fill="#2A2D7C"/>
<path d="M564.251 380.458C564.251 380.458 565.066 379.693 564.781 380.04C561.722 383.726 544.163 403.085 541.634 407.241C538.871 411.785 543.898 401.758 543.898 401.758L564.251 380.458ZM619.058 355.963C619.058 355.963 570.267 398.899 557.245 406.935C540.665 417.145 564.465 387.534 572.541 380.254C580.759 372.831 602.091 358.812 619.058 355.963Z" fill="#2A2D7C"/>
<path d="M551.554 408.221C551.554 408.221 552.37 407.455 552.084 407.792C549.025 411.478 530.936 431.522 528.408 435.678C525.644 440.221 531.069 429.214 531.069 429.214L551.554 408.221ZM613.072 383.297C613.072 383.297 559.589 425.998 546.568 434.044C529.998 444.254 557.887 411.172 565.942 403.933C574.181 396.51 596.104 386.146 613.072 383.297Z" fill="#2A2D7C"/>
<path d="M541.715 435.473C541.715 435.473 542.184 435.085 541.847 435.473C538.227 439.935 516.355 463.604 513.245 468.556C509.819 473.957 516.304 460.877 516.304 460.877L541.715 435.473ZM605.965 417.758C593.397 427.147 580.363 435.891 566.911 443.958C554.063 451.453 541.348 455.721 535.984 458.09C518.996 465.584 550.26 437.812 558.937 431.757C567.818 425.569 589.976 417.38 605.965 417.758Z" fill="#2A2D7C"/>
<path d="M531.396 458.386C531.396 458.386 531.855 457.988 531.519 458.386C527.899 462.848 504.334 488.456 501.367 493.459C500.663 494.644 505.66 483.913 505.66 483.913L531.396 458.386ZM592.312 447.083C592.312 447.083 569.879 464.012 548.466 476.694C534.037 485.189 519.813 490.131 513.797 492.847C494.759 501.424 529.969 470.251 539.717 463.42C549.669 456.466 574.488 446.97 592.312 447.083ZM572.704 497.309C572.704 497.309 548.639 501.393 529.275 507.223C506.557 514.095 503.233 514.371 498.41 514.013C483.114 512.686 526.522 488.609 535.404 486.7C544.499 484.78 561.956 487.445 572.704 497.309Z" fill="#2A2D7C"/>
<path d="M507.76 493.99C508.062 493.699 508.379 493.423 508.709 493.163C506.761 495.44 496.075 504.752 494.81 507.54C494.515 508.193 496.921 502.649 496.921 502.649L507.76 493.99ZM497.064 511.604C497.064 511.604 497.737 511.165 497.645 511.267C496.625 512.349 490.12 516.199 489.793 517.761C489.722 518.128 490.273 514.994 490.273 514.994L497.064 511.604Z" fill="#2A2D7C"/>
<path d="M459.723 0H201.041C170.946 0 146.549 24.4299 146.549 54.5656V580.046C146.549 610.181 170.946 634.611 201.041 634.611H459.723C489.818 634.611 514.215 610.181 514.215 580.046V54.5656C514.215 24.4299 489.818 0 459.723 0Z" fill="#4365AF"/>
<path d="M461.038 24.7812H198.746C178.804 24.7812 162.639 40.9687 162.639 60.9371V580.138C162.639 600.106 178.804 616.293 198.746 616.293H461.038C480.979 616.293 497.145 600.106 497.145 580.138V60.9371C497.145 40.9687 480.979 24.7812 461.038 24.7812Z" fill="white"/>
<path d="M403.762 11.2215H249.954C241.704 11.2215 235.016 17.9187 235.016 26.1801V26.1903C235.016 34.4517 241.704 41.1488 249.954 41.1488H403.762C412.013 41.1488 418.701 34.4517 418.701 26.1903V26.1801C418.701 17.9187 412.013 11.2215 403.762 11.2215Z" fill="#4365AF"/>
<path d="M362.945 13.8048H292.974C289.843 13.8048 287.305 16.3465 287.305 19.4819V19.4921C287.305 22.6275 289.843 25.1692 292.974 25.1692H362.945C366.076 25.1692 368.614 22.6275 368.614 19.4921V19.4819C368.614 16.3465 366.076 13.8048 362.945 13.8048Z" fill="white"/>
<path d="M458.916 100.626H206.882C198.654 100.626 191.984 107.305 191.984 115.544V170.191C191.984 178.43 198.654 185.109 206.882 185.109H458.916C467.144 185.109 473.814 178.43 473.814 170.191V115.544C473.814 107.305 467.144 100.626 458.916 100.626Z" fill="#F5F5FC"/>
<path d="M234.934 172.692C251.705 172.692 265.3 159.079 265.3 142.285C265.3 125.492 251.705 111.878 234.934 111.878C218.164 111.878 204.568 125.492 204.568 142.285C204.568 159.079 218.164 172.692 234.934 172.692Z" fill="#2A2D7C"/>
<path d="M444.755 114.543H287.489C283.93 114.543 281.045 117.432 281.045 120.996C281.045 124.56 283.93 127.449 287.489 127.449H444.755C448.314 127.449 451.199 124.56 451.199 120.996C451.199 117.432 448.314 114.543 444.755 114.543Z" fill="#2A2D7C"/>
<path d="M408.658 135.985H287.489C283.93 135.985 281.045 138.874 281.045 142.438C281.045 146.002 283.93 148.891 287.489 148.891H408.658C412.217 148.891 415.102 146.002 415.102 142.438C415.102 138.874 412.217 135.985 408.658 135.985Z" fill="#2A2D7C"/>
<path d="M316 159.776H287.489C283.93 159.776 281.045 162.665 281.045 166.229C281.045 169.793 283.93 172.682 287.489 172.682H316C319.559 172.682 322.444 169.793 322.444 166.229C322.444 162.665 319.559 159.776 316 159.776Z" fill="#2A2D7C"/>
<path d="M458.916 318.582H206.882C198.654 318.582 191.984 325.261 191.984 333.5V388.147C191.984 396.386 198.654 403.065 206.882 403.065H458.916C467.144 403.065 473.814 396.386 473.814 388.147V333.5C473.814 325.261 467.144 318.582 458.916 318.582Z" fill="#F5F5FC"/>
<path d="M234.934 390.649C251.705 390.649 265.3 377.035 265.3 360.241C265.3 343.448 251.705 329.834 234.934 329.834C218.164 329.834 204.568 343.448 204.568 360.241C204.568 377.035 218.164 390.649 234.934 390.649Z" fill="#2A2D7C"/>
<path d="M444.755 332.509H287.489C283.93 332.509 281.045 335.398 281.045 338.962C281.045 342.526 283.93 345.416 287.489 345.416H444.755C448.314 345.416 451.199 342.526 451.199 338.962C451.199 335.398 448.314 332.509 444.755 332.509Z" fill="#2A2D7C"/>
<path d="M408.658 353.952H287.489C283.93 353.952 281.045 356.841 281.045 360.405C281.045 363.969 283.93 366.858 287.489 366.858H408.658C412.217 366.858 415.102 363.969 415.102 360.405C415.102 356.841 412.217 353.952 408.658 353.952Z" fill="#2A2D7C"/>
<path d="M316 377.742H287.489C283.93 377.742 281.045 380.632 281.045 384.196C281.045 387.759 283.93 390.649 287.489 390.649H316C319.559 390.649 322.444 387.759 322.444 384.196C322.444 380.632 319.559 377.742 316 377.742Z" fill="#2A2D7C"/>
<path d="M458.916 421.954H206.882C198.654 421.954 191.984 428.633 191.984 436.872V491.519C191.984 499.758 198.654 506.437 206.882 506.437H458.916C467.144 506.437 473.814 499.758 473.814 491.519V436.872C473.814 428.633 467.144 421.954 458.916 421.954Z" fill="#F5F5FC"/>
<path d="M234.934 494.011C251.705 494.011 265.3 480.397 265.3 463.604C265.3 446.81 251.705 433.196 234.934 433.196C218.164 433.196 204.568 446.81 204.568 463.604C204.568 480.397 218.164 494.011 234.934 494.011Z" fill="#2A2D7C"/>
<path d="M444.755 435.871H287.489C283.93 435.871 281.045 438.761 281.045 442.325C281.045 445.889 283.93 448.778 287.489 448.778H444.755C448.314 448.778 451.199 445.889 451.199 442.325C451.199 438.761 448.314 435.871 444.755 435.871Z" fill="#2A2D7C"/>
<path d="M408.658 457.314H287.489C283.93 457.314 281.045 460.203 281.045 463.767C281.045 467.331 283.93 470.22 287.489 470.22H408.658C412.217 470.22 415.102 467.331 415.102 463.767C415.102 460.203 412.217 457.314 408.658 457.314Z" fill="#2A2D7C"/>
<path d="M316 481.105H287.489C283.93 481.105 281.045 483.994 281.045 487.558C281.045 491.122 283.93 494.011 287.489 494.011H316C319.559 494.011 322.444 491.122 322.444 487.558C322.444 483.994 319.559 481.105 316 481.105Z" fill="#2A2D7C"/>
<path d="M392.912 217.64H140.878C132.65 217.64 125.98 224.319 125.98 232.557V287.205C125.98 295.444 132.65 302.122 140.878 302.122H392.912C401.14 302.122 407.81 295.444 407.81 287.205V232.557C407.81 224.319 401.14 217.64 392.912 217.64Z" fill="#F5F5FC"/>
<path d="M380.678 203.345H128.644C120.416 203.345 113.746 210.024 113.746 218.262V272.91C113.746 281.149 120.416 287.828 128.644 287.828H380.678C388.906 287.828 395.575 281.149 395.575 272.91V218.262C395.575 210.024 388.906 203.345 380.678 203.345Z" fill="#2A2D7C"/>
<path d="M156.694 275.411C173.465 275.411 187.06 261.798 187.06 245.004C187.06 228.211 173.465 214.597 156.694 214.597C139.923 214.597 126.328 228.211 126.328 245.004C126.328 261.798 139.923 275.411 156.694 275.411Z" fill="white"/>
<path d="M366.514 217.262H209.249C205.69 217.262 202.805 220.151 202.805 223.715C202.805 227.279 205.69 230.168 209.249 230.168H366.514C370.073 230.168 372.959 227.279 372.959 223.715C372.959 220.151 370.073 217.262 366.514 217.262Z" fill="white"/>
<path d="M330.418 238.704H209.249C205.69 238.704 202.805 241.593 202.805 245.157C202.805 248.721 205.69 251.61 209.249 251.61H330.418C333.977 251.61 336.862 248.721 336.862 245.157C336.862 241.593 333.977 238.704 330.418 238.704Z" fill="white"/>
<path d="M237.759 262.495H209.249C205.69 262.495 202.805 265.384 202.805 268.948C202.805 272.512 205.69 275.401 209.249 275.401H237.759C241.318 275.401 244.204 272.512 244.204 268.948C244.204 265.384 241.318 262.495 237.759 262.495Z" fill="white"/>
<path d="M293.402 811C291.081 811.074 288.798 810.397 286.891 809.069C284.984 807.741 283.556 805.833 282.818 803.628C281.533 799.531 281.59 795.131 282.981 791.069C285.898 782.104 294.045 761.693 299.153 748.603C300.081 746.365 301.65 744.452 303.663 743.108C305.676 741.763 308.042 741.046 310.462 741.047L588.08 737.984C588.08 737.984 603.813 736.37 604.496 751.768C605.18 767.166 604.955 794.653 604.955 794.653C604.955 794.653 607.056 805.17 592.332 805.415C582.614 805.558 336.219 810.193 293.402 811Z" fill="#2A2D7C"/>
<path d="M295.168 799.748C292.595 799.821 290.042 799.275 287.724 798.155C284.226 796.399 280.586 792.866 282.87 785.963C285.766 776.999 295.983 750.451 301.061 737.361C301.97 735.127 303.522 733.215 305.519 731.868C307.517 730.521 309.869 729.799 312.278 729.795L588.132 726.793C588.132 726.793 603.764 725.18 604.447 740.577C605.13 755.975 604.916 783.462 604.916 783.462C604.916 783.462 606.955 793.979 592.363 794.224C582.33 794.336 322.209 799.237 295.168 799.748Z" fill="#F5F5FC"/>
<path d="M339.868 790.797C360.687 790.571 377.433 778.352 377.273 763.505C377.113 748.658 360.106 736.805 339.287 737.031C318.469 737.256 301.722 749.475 301.882 764.322C302.043 779.169 319.05 791.022 339.868 790.797Z" fill="white"/>
<path d="M577.867 737.868L397.659 739.821C394.759 739.853 392.434 742.232 392.465 745.136C392.496 748.04 394.873 750.369 397.773 750.337L577.981 748.385C580.881 748.353 583.206 745.974 583.175 743.07C583.143 740.166 580.767 737.837 577.867 737.868Z" fill="white"/>
<path d="M530.514 756.688L393.875 758.169C391.402 758.196 389.42 760.224 389.447 762.7C389.474 765.175 391.499 767.16 393.971 767.133L530.611 765.653C533.083 765.626 535.065 763.597 535.038 761.122C535.012 758.646 532.986 756.661 530.514 756.688Z" fill="white"/>
<path d="M440.48 779.666L390.539 780.208C388.518 780.229 386.897 781.888 386.919 783.913C386.94 785.937 388.597 787.56 390.619 787.538L440.56 786.997C442.581 786.975 444.202 785.316 444.18 783.292C444.158 781.268 442.502 779.644 440.48 779.666Z" fill="white"/>
<path d="M280.147 782.41C277.825 782.485 275.542 781.808 273.635 780.479C271.728 779.151 270.3 777.243 269.562 775.038C268.277 770.941 268.334 766.541 269.725 762.479C272.642 753.514 280.789 733.103 285.898 720.013C286.825 717.775 288.395 715.863 290.407 714.518C292.42 713.173 294.786 712.456 297.206 712.457L574.824 709.394C574.824 709.394 590.557 707.781 591.241 723.178C591.924 738.576 591.7 766.063 591.7 766.063C591.7 766.063 593.8 776.58 579.076 776.825C569.358 776.968 322.963 781.603 280.147 782.41Z" fill="#2A2D7C"/>
<path d="M281.912 771.158C279.339 771.231 276.786 770.685 274.468 769.565C270.971 767.809 267.33 764.276 269.614 757.374C272.51 748.409 282.727 721.861 287.805 708.771C288.714 706.538 290.266 704.626 292.263 703.278C294.261 701.931 296.614 701.209 299.022 701.205L574.876 698.203C574.876 698.203 590.508 696.59 591.191 711.988C591.874 727.385 591.66 754.872 591.66 754.872C591.66 754.872 593.699 765.389 579.108 765.634C569.074 765.746 308.954 770.648 281.912 771.158Z" fill="#F5F5FC"/>
<path d="M326.62 762.209C347.439 761.984 364.185 749.765 364.025 734.918C363.865 720.071 346.858 708.218 326.039 708.443C305.221 708.669 288.474 720.888 288.634 735.735C288.795 750.582 305.802 762.435 326.62 762.209Z" fill="white"/>
<path d="M564.619 709.281L384.411 711.234C381.511 711.265 379.186 713.645 379.217 716.549C379.248 719.453 381.625 721.781 384.525 721.75L564.733 719.797C567.633 719.766 569.958 717.386 569.927 714.482C569.895 711.578 567.519 709.25 564.619 709.281Z" fill="white"/>
<path d="M517.266 728.101L380.626 729.581C378.154 729.608 376.172 731.637 376.199 734.112C376.226 736.588 378.251 738.573 380.723 738.546L517.363 737.065C519.835 737.038 521.817 735.01 521.79 732.534C521.764 730.059 519.738 728.074 517.266 728.101Z" fill="white"/>
<path d="M427.221 751.079L377.28 751.62C375.258 751.642 373.637 753.301 373.659 755.325C373.681 757.35 375.337 758.973 377.359 758.951L427.3 758.41C429.321 758.388 430.942 756.729 430.921 754.705C430.899 752.68 429.242 751.057 427.221 751.079Z" fill="white"/>
<path d="M307.261 757.741C305.007 757.783 302.801 757.085 300.98 755.754C299.159 754.423 297.823 752.532 297.176 750.369C295.954 746.268 296.007 741.891 297.329 737.82C300.102 728.855 307.852 708.444 312.706 695.354C313.532 693.154 315.004 691.255 316.927 689.906C318.85 688.558 321.136 687.823 323.484 687.799L587.877 684.919C587.877 684.919 602.856 683.306 603.508 698.714C604.161 714.122 603.977 741.598 603.977 741.598C603.977 741.598 606.017 752.126 591.955 752.35C582.717 752.452 348.027 756.955 307.261 757.741Z" fill="#2A2D7C"/>
<path d="M308.932 746.448C306.455 746.535 303.997 745.983 301.794 744.845C298.47 743.089 295.044 739.566 297.165 732.664C299.918 723.699 309.635 697.151 314.499 684.061C315.31 681.865 316.767 679.967 318.68 678.62C320.592 677.272 322.868 676.538 325.206 676.516L587.896 673.647C587.896 673.647 602.783 672.033 603.436 687.441C604.088 702.849 603.905 730.326 603.905 730.326C603.905 730.326 605.944 740.853 591.964 741.078C582.4 741.22 334.689 745.989 308.932 746.448Z" fill="#F5F5FC"/>
<path d="M351.509 737.568C371.337 737.353 387.28 725.143 387.12 710.296C386.959 695.449 370.756 683.587 350.928 683.802C331.101 684.017 315.157 696.227 315.318 711.074C315.478 725.921 331.682 737.783 351.509 737.568Z" fill="white"/>
<path d="M577.885 684.766L406.773 686.62C403.872 686.651 401.547 689.031 401.578 691.935C401.61 694.839 403.986 697.168 406.886 697.136L577.999 695.282C580.899 695.251 583.224 692.871 583.193 689.967C583.162 687.063 580.785 684.734 577.885 684.766Z" fill="white"/>
<path d="M523.84 716.562H394.137C391.664 716.562 389.66 718.569 389.66 721.044C389.66 723.52 391.664 725.527 394.137 725.527H523.84C526.312 725.527 528.316 723.52 528.316 721.044C528.316 718.569 526.312 716.562 523.84 716.562Z" fill="white"/>
<path d="M447.145 726.482L399.926 726.993C397.904 727.015 396.283 728.674 396.305 730.699C396.327 732.723 397.984 734.346 400.005 734.324L447.224 733.813C449.246 733.791 450.867 732.132 450.845 730.108C450.823 728.083 449.166 726.46 447.145 726.482Z" fill="white"/>
<path d="M271.123 730.652C268.87 730.671 266.672 729.951 264.865 728.601C263.059 727.252 261.744 725.347 261.12 723.178C259.945 719.059 260.045 714.68 261.406 710.619C264.281 701.695 272.245 681.366 277.252 668.337C278.097 666.142 279.588 664.255 281.527 662.926C283.466 661.597 285.762 660.889 288.111 660.893H552.514C552.514 660.893 567.514 659.454 567.993 674.862C568.472 690.269 567.993 717.746 567.993 717.746C567.993 717.746 569.89 728.284 555.859 728.365C546.59 728.375 311.9 730.316 271.123 730.652Z" fill="#2A2D7C"/>
<path d="M272.917 719.421C270.455 719.472 268.02 718.896 265.841 717.746C262.527 715.949 259.142 712.386 261.334 705.493C264.189 696.569 274.202 670.124 279.168 657.095C280.002 654.907 281.48 653.023 283.407 651.694C285.333 650.365 287.617 649.653 289.956 649.652H552.667C552.667 649.652 567.574 648.212 568.054 663.62C568.533 679.028 568.054 706.504 568.054 706.504C568.054 706.504 569.93 717.042 556.001 717.123C546.426 717.144 298.675 719.206 272.917 719.421Z" fill="#F5F5FC"/>
<path d="M315.653 710.885C335.482 710.885 351.556 698.848 351.556 684C351.556 669.152 335.482 657.115 315.653 657.115C295.824 657.115 279.75 669.152 279.75 684C279.75 698.848 295.824 710.885 315.653 710.885Z" fill="white"/>
<path d="M542.581 660.536H371.458C368.558 660.536 366.207 662.89 366.207 665.795C366.207 668.699 368.558 671.053 371.458 671.053H542.581C545.481 671.053 547.832 668.699 547.832 665.795C547.832 662.89 545.481 660.536 542.581 660.536Z" fill="white"/>
<path d="M497.328 678.844H367.625C365.153 678.844 363.148 680.851 363.148 683.326C363.148 685.802 365.153 687.809 367.625 687.809H497.328C499.8 687.809 501.804 685.802 501.804 683.326C501.804 680.851 499.8 678.844 497.328 678.844Z" fill="white"/>
<path d="M411.4 700.848H364.178C362.157 700.848 360.518 702.489 360.518 704.513C360.518 706.538 362.157 708.179 364.178 708.179H411.4C413.421 708.179 415.06 706.538 415.06 704.513C415.06 702.489 413.421 700.848 411.4 700.848Z" fill="white"/>
</g>
<defs>
<clipPath id="clip0_1337_981">
<rect width="700" height="811" fill="white"/>
</clipPath>
</defs>
</svg>
